name C:/MyDriveSym/Projects/mobilecap/Data\Session20210827_0002\mocap\ForceDataProcessed\walkingTS3_forces.mot
datacolumns 19
datarows 22
range 0.76950000 0.78000000
endheader 
time	R_ground_force_vx	R_ground_force_vy	R_ground_force_vz	R_ground_force_px	R_ground_force_py	R_ground_force_pz	R_ground_torque_x	R_ground_torque_y	R_ground_torque_z	L_ground_force_vx	L_ground_force_vy	L_ground_force_vz	L_ground_force_px	L_ground_force_py	L_ground_force_pz	L_ground_torque_x	L_ground_torque_y	L_ground_torque_z	
          0.76950000	         13.58832800	         48.00517900	          4.52867300	          0.32687200	          0.00600000	         -0.18338500	          0.00000000	         -0.20040000	          0.00000000	        -94.71261600	        564.46925800	         25.36559200	          0.82912600	          0.00600000	         -0.32998700	          0.00000000	         -1.17518100	          0.00000000	
          0.77000000	         13.36671500	         47.04115800	          4.48941500	          0.32734000	          0.00600000	         -0.18314000	          0.00000000	         -0.19416200	          0.00000000	        -94.63564700	        565.05546900	         25.39475000	          0.82926500	          0.00600000	         -0.32997000	          0.00000000	         -1.18083200	          0.00000000	
          0.77050000	         13.14682800	         46.08655400	          4.45017400	          0.32781900	          0.00600000	         -0.18288900	          0.00000000	         -0.18801100	          0.00000000	        -94.55702400	        565.63856100	         25.42299000	          0.82940300	          0.00600000	         -0.32995300	          0.00000000	         -1.18644200	          0.00000000	
          0.77100000	         12.92867100	         45.14134700	          4.41095200	          0.32831100	          0.00600000	         -0.18263100	          0.00000000	         -0.18194700	          0.00000000	        -94.47675900	        566.21852300	         25.45032100	          0.82954100	          0.00600000	         -0.32993500	          0.00000000	         -1.19200900	          0.00000000	
          0.77150000	         12.71224500	         44.20551300	          4.37175700	          0.32881700	          0.00600000	         -0.18236700	          0.00000000	         -0.17597100	          0.00000000	        -94.39486000	        566.79534300	         25.47674800	          0.82967800	          0.00600000	         -0.32991800	          0.00000000	         -1.19753300	          0.00000000	
          0.77200000	         12.49755300	         43.27902900	          4.33259200	          0.32933500	          0.00600000	         -0.18209500	          0.00000000	         -0.17008300	          0.00000000	        -94.31134000	        567.36901000	         25.50227800	          0.82981500	          0.00600000	         -0.32990000	          0.00000000	         -1.20301300	          0.00000000	
          0.77250000	         12.28459500	         42.36187100	          4.29346300	          0.32986900	          0.00600000	         -0.18181600	          0.00000000	         -0.16428200	          0.00000000	        -94.22620700	        567.93951100	         25.52691900	          0.82995100	          0.00600000	         -0.32988300	          0.00000000	         -1.20844700	          0.00000000	
          0.77300000	         12.07337400	         41.45401300	          4.25437500	          0.33041600	          0.00600000	         -0.18152900	          0.00000000	         -0.15857000	          0.00000000	        -94.13947300	        568.50683200	         25.55067800	          0.83008600	          0.00600000	         -0.32986500	          0.00000000	         -1.21383500	          0.00000000	
          0.77350000	         11.86389100	         40.55543000	          4.21533200	          0.33098000	          0.00600000	         -0.18123400	          0.00000000	         -0.15294700	          0.00000000	        -94.05114800	        569.07095900	         25.57356000	          0.83022100	          0.00600000	         -0.32984700	          0.00000000	         -1.21917600	          0.00000000	
          0.77400000	         11.65614700	         39.66609500	          4.17633900	          0.33156000	          0.00600000	         -0.18093000	          0.00000000	         -0.14741300	          0.00000000	        -93.96124300	        569.63188000	         25.59557400	          0.83035600	          0.00600000	         -0.32983000	          0.00000000	         -1.22447000	          0.00000000	
          0.77450000	         11.45014200	         38.78598100	          4.13740100	          0.33215600	          0.00600000	         -0.18061800	          0.00000000	         -0.14196800	          0.00000000	        -93.86976800	        570.18957900	         25.61672600	          0.83048900	          0.00600000	         -0.32981200	          0.00000000	         -1.22971400	          0.00000000	
          0.77500000	         11.24587700	         37.91505900	          4.09852300	          0.33277100	          0.00600000	         -0.18029600	          0.00000000	         -0.13661300	          0.00000000	        -93.77673300	        570.74404300	         25.63702300	          0.83062300	          0.00600000	         -0.32979500	          0.00000000	         -1.23490900	          0.00000000	
          0.77550000	         11.04335200	         37.05330100	          4.05970900	          0.33340500	          0.00600000	         -0.17996400	          0.00000000	         -0.13134900	          0.00000000	        -93.68214900	        571.29525500	         25.65647300	          0.83075500	          0.00600000	         -0.32977700	          0.00000000	         -1.24005400	          0.00000000	
          0.77600000	         10.84256900	         36.20067700	          4.02096300	          0.33405800	          0.00600000	         -0.17962100	          0.00000000	         -0.12617600	          0.00000000	        -93.58602700	        571.84320100	         25.67508300	          0.83088800	          0.00600000	         -0.32976000	          0.00000000	         -1.24514600	          0.00000000	
          0.77650000	         10.64352600	         35.35715800	          3.98229000	          0.33473200	          0.00600000	         -0.17926800	          0.00000000	         -0.12109400	          0.00000000	        -93.48837800	        572.38786400	         25.69286000	          0.83101900	          0.00600000	         -0.32974200	          0.00000000	         -1.25018700	          0.00000000	
          0.77700000	         10.44622300	         34.52271100	          3.94369500	          0.33542700	          0.00600000	         -0.17890300	          0.00000000	         -0.11610500	          0.00000000	        -93.38921200	        572.92922900	         25.70981000	          0.83115100	          0.00600000	         -0.32972400	          0.00000000	         -1.25517400	          0.00000000	
          0.77750000	         10.25066100	         33.69730700	          3.90518100	          0.33614600	          0.00600000	         -0.17852700	          0.00000000	         -0.11120900	          0.00000000	        -93.28854000	        573.46727900	         25.72594200	          0.83128100	          0.00600000	         -0.32970700	          0.00000000	         -1.26010800	          0.00000000	
          0.77800000	         10.05683800	         32.88091100	          3.86675200	          0.33688900	          0.00600000	         -0.17813700	          0.00000000	         -0.10640700	          0.00000000	        -93.18637200	        574.00199700	         25.74126300	          0.83141100	          0.00600000	         -0.32968900	          0.00000000	         -1.26498600	          0.00000000	
          0.77850000	          9.86475400	         32.07349100	          3.82841300	          0.33765700	          0.00600000	         -0.17773400	          0.00000000	         -0.10170000	          0.00000000	        -93.08271900	        574.53336600	         25.75578000	          0.83154100	          0.00600000	         -0.32967200	          0.00000000	         -1.26980900	          0.00000000	
          0.77900000	          9.67440700	         31.27501500	          3.79016900	          0.33845200	          0.00600000	         -0.17731700	          0.00000000	         -0.09708900	          0.00000000	        -92.97759300	        575.06136900	         25.76950000	          0.83167000	          0.00600000	         -0.32965400	          0.00000000	         -1.27457500	          0.00000000	
          0.77950000	          9.48579700	         30.48544600	          3.75202200	          0.33927500	          0.00600000	         -0.17688500	          0.00000000	         -0.09257500	          0.00000000	        -92.87100400	        575.58598900	         25.78243000	          0.83179800	          0.00600000	         -0.32963600	          0.00000000	         -1.27928400	          0.00000000	
          0.78000000	          9.29892100	         29.70475200	          3.71397700	          0.34012900	          0.00600000	         -0.17643800	          0.00000000	         -0.08815900	          0.00000000	        -92.76296300	        576.10720700	         25.79457900	          0.83192600	          0.00600000	         -0.32961900	          0.00000000	         -1.28393400	          0.00000000	
